<svg width="32" height="32" viewBox="0 0 32 32" fill="none" xmlns="http://www.w3.org/2000/svg">
<path d="M19 7.9375C18.375 7.375 17.4375 7.375 16.875 7.9375L9.875 14.9375C9.625 15.25 9.5 15.625 9.5 16C9.5 16.4375 9.625 16.8125 9.9375 17.0625L16.9375 24.0625C17.5 24.6875 18.4375 24.6875 19 24.0625C19.625 23.5 19.625 22.5625 19 22L13.0625 16L19 10.0625C19.625 9.5 19.625 8.5625 19 7.9375ZM16 0C7.125 0 0 7.1875 0 16C0 24.875 7.125 32 16 32C24.8125 32 32 24.875 32 16C32 7.1875 24.8125 0 16 0ZM16 29C8.8125 29 3 23.1875 3 16C3 8.875 8.8125 3 16 3C23.125 3 29 8.875 29 16C29 23.1875 23.125 29 16 29Z" fill="white"/>
<path d="M32 16C32 7.1875 24.8125 0 16 0C7.125 0 0 7.1875 0 16C0 24.875 7.125 32 16 32C24.8125 32 32 24.875 32 16ZM16.9375 8.4375C17.5 7.875 18.4375 7.875 19 8.4375C19.625 9.0625 19.625 10 19 10.5625L13.5625 16L19 21.4375C19.625 22.0625 19.625 23 19 23.5625C18.4375 24.1875 17.5 24.1875 16.9375 23.5625L10.4375 17.0625C9.8125 16.5 9.8125 15.5625 10.4375 15L16.9375 8.4375Z" fill="#34C94B"/>
</svg>
